<?xml version="1.0" encoding="UTF-8"?>
<svg width="9px" height="9px" viewBox="0 0 14 9" version="1.1" xmlns="http://www.w3.org/2000/svg" xmlns:xlink="http://www.w3.org/1999/xlink">
    <g id="Desktop---Main-Copy-17" stroke="none" stroke-width="1" fill="none" fill-rule="evenodd" transform="translate(-793.000000, -850.000000)">
        <g id="scroll" transform="translate(765.000000, 817.000000)" fill="#434343">
            <path d="M34.7214271,37.2820543 L38.9556278,32.912262 C39.1707063,32.690296 39.2777778,32.4192188 39.2777778,32.0986165 C39.2777778,31.7780143 39.1707063,31.5063852 38.9556278,31.284971 L38.301837,30.610244 C38.0872932,30.3886918 37.8246273,30.2777778 37.5139731,30.2777778 C37.2026505,30.2777778 36.9401183,30.3886918 36.7249061,30.610244 L31.0443722,36.4641323 C30.8298283,36.6855465 30.7222222,36.9571755 30.7222222,37.2777778 C30.7222222,37.59838 30.8298283,37.8694573 31.0443722,38.0914233 L36.7249061,43.9447598 C36.9401183,44.1667258 37.2026505,44.2777778 37.5139731,44.2777778 C37.8246273,44.2777778 38.0872932,44.1667258 38.301837,43.9447598 L38.9556278,43.2705845 C39.1707063,43.0486185 39.2777778,42.7791967 39.2777778,42.4612156 C39.2777778,42.1437862 39.1707063,41.8706397 38.9556278,41.6432935 L34.7214271,37.2820543 Z" id="chevron-pointing-to-the-left" transform="translate(35.000000, 37.277778) rotate(-90.000000) translate(-35.000000, -37.277778) "></path>
        </g>
    </g>
</svg>
